<svg width="48" height="48" viewBox="0 0 48 48" fill="none" xmlns="http://www.w3.org/2000/svg">
<path d="M34.143 35V13.143H29.143V17.2858" stroke="#9DDC21" stroke-width="2" stroke-linecap="round" stroke-linejoin="round"/>
<path d="M20.857 35V26.571H26.857V35" stroke="#9DDC21" stroke-width="2" stroke-linecap="round" stroke-linejoin="round"/>
<path d="M13.571 21.673V35" stroke="#9DDC21" stroke-width="2" stroke-linecap="round" stroke-linejoin="round"/>
<path d="M36 35H12" stroke="#9DDC21" stroke-width="2" stroke-linecap="round" stroke-linejoin="round"/>
<path d="M12 23L24 13L36 23" stroke="#9DDC21" stroke-width="2" stroke-linecap="round" stroke-linejoin="round"/>
<path d="M6 24V36C6 39.3137 8.68629 42 12 42H36C39.3137 42 42 39.3137 42 36V12C42 8.68629 39.3137 6 36 6H24" stroke="#9DDC21" stroke-width="2" stroke-linecap="round" stroke-linejoin="round"/>
<path d="M18 6H10C7.79086 6 6 7.79086 6 10V18" stroke="#9DDC21" stroke-width="2" stroke-linecap="round" stroke-linejoin="round"/>
<path d="M3 15L6 18L9 15" stroke="#9DDC21" stroke-width="2" stroke-linecap="round" stroke-linejoin="round"/>
<path d="M15 9L18 6L15 3" stroke="#9DDC21" stroke-width="2" stroke-linecap="round" stroke-linejoin="round"/>
</svg>
